<svg width="40" height="40" viewBox="0 0 40 40" fill="none" xmlns="http://www.w3.org/2000/svg">
<rect x="13" y="6" width="7" height="7" fill="#C4C4C4"/>
<rect x="-1" y="6" width="7" height="7" fill="#C4C4C4"/>
<rect x="20" y="-1" width="7" height="7" fill="#C4C4C4"/>
<rect x="20" y="27" width="7" height="7" fill="#C4C4C4"/>
<rect x="34" y="27" width="7" height="7" fill="#C4C4C4"/>
<rect x="34" y="13" width="7" height="7" fill="#C4C4C4"/>
<rect x="27" y="6" width="7" height="7" fill="#C4C4C4"/>
<rect x="27" y="20" width="7" height="7" fill="#C4C4C4"/>
<rect x="27" y="34" width="7" height="7" fill="#C4C4C4"/>
<rect x="13" y="20" width="7" height="7" fill="#C4C4C4"/>
<rect x="13" y="34" width="7" height="7" fill="#C4C4C4"/>
<rect x="-1" y="20" width="7" height="7" fill="#C4C4C4"/>
<rect x="20" y="13" width="7" height="7" fill="#C4C4C4"/>
<rect x="6" y="13" width="7" height="7" fill="#C4C4C4"/>
<rect x="6" y="-1" width="7" height="7" fill="#C4C4C4"/>
<rect x="6" y="27" width="7" height="7" fill="#C4C4C4"/>
</svg>
